<svg width="426" height="164" viewBox="0 0 426 164" fill="none" xmlns="http://www.w3.org/2000/svg">
<path d="M106.83 72.44H44.18C40.71 72.44 38.96 74.19 38.96 77.65C38.9189 78.8683 39.3243 80.0596 40.1 81C40.19 81.1311 40.2903 81.2548 40.4 81.37C40.8963 81.8589 41.4882 82.24 42.1387 82.4895C42.7891 82.739 43.484 82.8516 44.18 82.82H98.84C98.2 83.92 97.62 84.82 97.04 85.71C95.5837 87.904 93.9084 89.9444 92.04 91.8L91.86 91.98C87.5119 96.4164 82.3381 99.9595 76.63 102.41C70.9626 104.74 64.8875 105.916 58.76 105.87C52.1935 105.947 45.6816 104.67 39.63 102.12C33.7374 99.5019 28.4577 95.68 24.13 90.9L24.04 90.79C19.8796 86.4298 16.5967 81.3101 14.37 75.71C12.2033 70.0587 11.1112 64.0523 11.15 58C11.0848 51.7961 12.2259 45.6386 14.51 39.87C16.8191 34.2436 20.2408 29.1416 24.57 24.87L24.66 24.79C29.0531 20.3544 34.2619 16.8094 40 14.35C50.8769 9.95501 62.9833 9.67768 74.05 13.57C79.0868 15.4322 83.7703 18.1374 87.9 21.57C88.395 22.0597 88.9743 22.456 89.61 22.74C90.2902 23.0548 91.0305 23.2186 91.78 23.22C93.1627 23.2628 94.5089 22.7723 95.54 21.85C96.0698 21.3621 96.488 20.7655 96.7659 20.101C97.0437 19.4365 97.1748 18.7198 97.15 18C97.1393 17.125 96.9126 16.2662 96.49 15.5L96.4 15.32C96.0104 14.6592 95.5136 14.0678 94.93 13.57L94.71 13.39C89.5264 9.21229 83.6831 5.92732 77.42 3.67C71.2277 1.48633 64.706 0.383601 58.14 0.410009C50.4836 0.293988 42.8841 1.74185 35.8067 4.66497C28.7293 7.58808 22.323 11.9249 16.98 17.41L16.75 17.66C11.4836 22.9048 7.30377 29.1371 4.44999 36C1.61756 42.9863 0.187079 50.4615 0.24 58C0.0864076 72.9577 5.83529 87.373 16.24 98.12C18.9412 101.011 21.9338 103.614 25.17 105.89C28.4006 108.146 31.8516 110.07 35.47 111.63C39.0968 113.196 42.8773 114.379 46.75 115.16C50.6419 115.963 54.606 116.365 58.58 116.36C66.7682 116.399 74.8687 114.673 82.33 111.3L82.48 111.24C86.5736 109.216 90.436 106.755 94 103.9C97.484 101.131 100.641 97.974 103.41 94.49C104.003 93.8549 104.561 93.1872 105.08 92.49C105.627 91.7401 106.134 90.9624 106.6 90.16L109.08 85.92L109.19 85.74C109.972 84.3756 110.673 82.9666 111.29 81.52V81.44C111.815 80.2564 112.11 78.9838 112.16 77.69C112.18 76.9684 112.045 76.251 111.766 75.5854C111.487 74.9198 111.069 74.3214 110.54 73.83C109.525 72.9125 108.198 72.4156 106.83 72.44Z" fill="black"/>
<path d="M424.62 46.59C423.84 42.8473 422.677 39.1948 421.15 35.69V35.56C419.574 31.778 417.56 28.1936 415.15 24.88L414.54 24.04C412.266 21.0662 409.67 18.353 406.8 15.95C395.8 6.67001 381.05 1.95 362.87 1.95H336.68C334.15 1.95 332.26 2.56001 331.02 3.82001C330.897 3.93171 330.789 4.05952 330.7 4.2C329.677 5.73233 329.166 7.54921 329.24 9.39V107.26C329.24 109.8 329.85 111.7 331.07 112.9C332.29 114.1 334.13 114.68 336.68 114.68H362.86C375.15 114.68 385.86 112.62 394.74 108.55C403.65 104.525 411.209 98.0146 416.51 89.8C422.706 80.5105 425.951 69.5657 425.82 58.4C425.818 54.433 425.416 50.4763 424.62 46.59ZM414.9 58.45C414.922 62.3559 414.475 66.2503 413.57 70.05C412.697 73.6766 411.352 77.173 409.57 80.45L409.48 80.63C407.293 84.7505 404.487 88.511 401.16 91.78C397.779 95.0302 393.908 97.7297 389.69 99.78L389.34 99.96C385.9 101.565 382.256 102.689 378.51 103.3C373.429 104.158 368.282 104.562 363.13 104.51H339.85V12.43H363.17C373.73 12.43 382.82 14.18 390.17 17.62L390.59 17.81C397.534 21.095 403.392 26.3003 407.47 32.81L407.53 32.91C409.962 36.6129 411.829 40.6572 413.07 44.91C414.309 49.3157 414.925 53.8734 414.9 58.45Z" fill="black"/>
<path d="M226.17 32.13C221.378 22.6679 214.048 14.7252 205 9.19L204.75 9.02999C200.239 6.24101 195.372 4.07472 190.28 2.58999C185.275 1.14352 180.09 0.412943 174.88 0.419994C170.098 0.404729 165.329 0.941622 160.67 2.02C156.2 3.07307 151.873 4.65769 147.78 6.74L147.61 6.82C138.112 11.537 130.139 18.8407 124.61 27.89L124.46 28.09C121.655 32.6341 119.492 37.5438 118.03 42.68C115.556 51.4514 115.203 60.6853 117 69.62C117.77 73.3402 118.899 76.9772 120.37 80.48C121.817 84.0074 123.62 87.3782 125.75 90.54C127.79 93.6178 130.136 96.4822 132.75 99.09L132.92 99.3C135.642 102.018 138.623 104.463 141.82 106.6C151.441 112.957 162.719 116.344 174.25 116.34C181.904 116.356 189.486 114.861 196.56 111.94C200.103 110.501 203.493 108.713 206.68 106.6C209.863 104.451 212.839 102.01 215.57 99.31L215.67 99.19C218.3 96.5383 220.67 93.6419 222.75 90.54C224.857 87.3642 226.659 83.9958 228.13 80.48C229.598 76.9795 230.713 73.3415 231.46 69.62C232.22 65.9453 232.602 62.2025 232.6 58.45C232.625 49.2848 230.418 40.2513 226.17 32.13ZM221.7 58.45C221.701 61.5628 221.392 64.668 220.78 67.72C220.18 70.749 219.279 73.7104 218.09 76.56C216.884 79.4274 215.408 82.1732 213.68 84.76C211.994 87.3163 210.065 89.704 207.92 91.89L207.8 92.02C203.424 96.4813 198.203 100.025 192.442 102.445C186.68 104.864 180.494 106.11 174.245 106.11C167.996 106.11 161.81 104.864 156.048 102.445C150.287 100.025 145.066 96.4813 140.69 92.02C138.49 89.8307 136.517 87.4252 134.8 84.84C133.077 82.2325 131.607 79.4666 130.41 76.58C128.026 70.8329 126.799 64.672 126.8 58.45C126.778 52.1807 128.005 45.9698 130.41 40.18C132.782 34.4039 136.276 29.1559 140.69 24.74C142.879 22.5492 145.274 20.5735 147.84 18.84C150.408 17.1192 153.138 15.6523 155.99 14.46C161.568 12.093 167.561 10.8624 173.62 10.84C179.947 10.7866 186.223 11.9792 192.09 14.35C197.927 16.8193 203.241 20.3757 207.75 24.83L207.86 24.96C210.045 27.0547 212.002 29.3742 213.7 31.88C215.432 34.4556 216.893 37.2036 218.06 40.08L218.17 40.29C220.502 46.0606 221.7 52.2262 221.7 58.45Z" fill="black"/>
<path d="M316.68 104.48H252.59V7.38C252.631 6.66286 252.519 5.94523 252.263 5.27411C252.007 4.60299 251.612 3.99352 251.104 3.48561C250.596 2.9777 249.987 2.58281 249.316 2.3268C248.645 2.07078 247.927 1.95942 247.21 2C246.49 1.97523 245.773 2.10626 245.109 2.38414C244.445 2.66202 243.848 3.08018 243.36 3.61L243.28 3.72C242.417 4.73996 241.964 6.04463 242.01 7.38V107.31C242.01 109.89 242.6 111.73 243.82 112.95C245.04 114.17 246.9 114.73 249.44 114.73H316.68C317.375 114.757 318.069 114.645 318.72 114.399C319.371 114.154 319.966 113.78 320.47 113.3C320.949 112.802 321.323 112.212 321.569 111.566C321.815 110.92 321.927 110.231 321.9 109.54C321.9 106.18 320.14 104.48 316.68 104.48Z" fill="black"/>
<path d="M221.79 157.5C221.589 157.512 221.392 157.563 221.21 157.65C221.095 157.706 220.987 157.776 220.89 157.86L220.65 157.95V158C220.44 158.19 220.22 158.36 220.02 158.52C219.82 158.68 219.49 158.92 219.24 159.08L218.87 159.3C218.71 159.4 218.54 159.51 218.37 159.6H218.28C218.02 159.74 217.75 159.88 217.47 160.01C216.687 160.368 215.865 160.633 215.02 160.8C213.464 161.139 211.855 161.159 210.29 160.86C209.556 160.719 208.836 160.512 208.14 160.24C207.345 159.914 206.582 159.516 205.86 159.05C205.164 158.611 204.523 158.09 203.95 157.5L203.56 157.1C202.615 156.088 201.863 154.912 201.34 153.63C200.747 152.124 200.452 150.518 200.47 148.9C200.458 147.264 200.775 145.642 201.4 144.13C201.708 143.398 202.069 142.689 202.48 142.01C202.913 141.359 203.401 140.746 203.94 140.18C204.503 139.618 205.119 139.113 205.78 138.67C206.451 138.219 207.169 137.84 207.92 137.54C208.663 137.223 209.437 136.986 210.23 136.83C211.008 136.68 211.798 136.606 212.59 136.61C214.021 136.603 215.44 136.871 216.77 137.4C218.198 137.991 219.514 138.823 220.66 139.86C220.747 139.929 220.841 139.989 220.94 140.04L221.06 140.1C221.23 140.188 221.418 140.235 221.61 140.24C221.785 140.261 221.963 140.245 222.131 140.192C222.299 140.14 222.454 140.052 222.586 139.934C222.717 139.817 222.822 139.673 222.894 139.512C222.965 139.351 223.001 139.176 223 139C222.995 138.814 222.955 138.631 222.88 138.46V138.38L222.77 138.2L222.68 138.08C222.341 137.706 221.962 137.371 221.55 137.08C221.028 136.698 220.484 136.347 219.92 136.03L219.82 135.98C217.664 134.74 215.227 134.069 212.74 134.03C211.576 134.029 210.416 134.156 209.28 134.41C208.146 134.659 207.045 135.042 206 135.55C203.399 136.747 201.231 138.716 199.79 141.19C199.085 142.376 198.55 143.655 198.2 144.99C197.579 147.272 197.487 149.666 197.93 151.99C198.119 152.942 198.39 153.875 198.74 154.78C199.105 155.67 199.554 156.524 200.08 157.33C200.621 158.148 201.248 158.905 201.95 159.59C202.638 160.286 203.395 160.909 204.21 161.45C205.864 162.525 207.707 163.278 209.64 163.67C210.592 163.856 211.56 163.95 212.53 163.95C213.46 163.947 214.387 163.857 215.3 163.68C216.21 163.505 217.1 163.244 217.96 162.9C218.812 162.554 219.638 162.147 220.43 161.68C221.226 161.192 221.979 160.637 222.68 160.02C222.837 159.883 222.964 159.716 223.055 159.529C223.146 159.341 223.199 159.138 223.21 158.93C223.216 158.746 223.185 158.562 223.118 158.39C223.051 158.218 222.949 158.062 222.82 157.93C222.692 157.785 222.533 157.67 222.355 157.596C222.176 157.521 221.983 157.489 221.79 157.5Z" fill="black"/>
<path d="M154.46 137.1C154.644 137.111 154.828 137.082 155.001 137.017C155.173 136.951 155.329 136.85 155.46 136.72C155.593 136.59 155.697 136.434 155.768 136.262C155.838 136.09 155.873 135.906 155.87 135.72C155.88 135.535 155.85 135.35 155.783 135.178C155.716 135.005 155.612 134.849 155.48 134.72C155.357 134.579 155.202 134.468 155.028 134.397C154.855 134.326 154.667 134.296 154.48 134.31H135.84C135.638 134.318 135.437 134.345 135.24 134.39H135.14C134.92 134.451 134.713 134.553 134.53 134.69L134.37 134.86C134.216 135.063 134.11 135.299 134.06 135.55C134.009 135.776 133.985 136.008 133.99 136.24V152.46H132.21C132.025 152.438 131.837 152.458 131.661 152.518C131.484 152.579 131.323 152.678 131.19 152.808C131.057 152.938 130.955 153.097 130.89 153.272C130.826 153.447 130.802 153.634 130.82 153.82C130.799 154.008 130.821 154.197 130.884 154.375C130.946 154.553 131.048 154.715 131.182 154.848C131.315 154.982 131.477 155.084 131.655 155.146C131.833 155.209 132.022 155.231 132.21 155.21H134V161.49C133.977 161.756 134.008 162.024 134.09 162.279C134.173 162.533 134.305 162.768 134.48 162.97C134.685 163.148 134.928 163.278 135.19 163.35C135.423 163.403 135.661 163.43 135.9 163.43H153.62C153.804 163.436 153.987 163.406 154.158 163.341C154.33 163.276 154.487 163.177 154.62 163.05C154.749 162.918 154.851 162.762 154.918 162.59C154.985 162.418 155.016 162.234 155.01 162.05C155.02 161.863 154.989 161.677 154.918 161.504C154.847 161.331 154.738 161.176 154.6 161.05C154.465 160.928 154.307 160.834 154.136 160.774C153.964 160.714 153.782 160.688 153.6 160.7H136.73V155.18H154.1C154.473 155.181 154.831 155.038 155.1 154.78C155.346 154.505 155.482 154.149 155.48 153.78C155.476 153.406 155.33 153.049 155.07 152.78C154.796 152.534 154.438 152.405 154.07 152.42H136.73V137.1H154.46Z" fill="black"/>
<path d="M293.07 142.15C292.457 140.924 291.676 139.79 290.75 138.78C289.801 137.772 288.726 136.891 287.55 136.16C285.221 134.728 282.544 133.961 279.81 133.94C278.579 133.937 277.351 134.071 276.15 134.34C274.974 134.618 273.835 135.037 272.76 135.59C271.531 136.212 270.391 136.995 269.37 137.92C268.37 138.855 267.502 139.921 266.79 141.09C266.072 142.269 265.511 143.536 265.12 144.86C264.751 146.188 264.566 147.561 264.57 148.94C264.568 150.896 264.963 152.831 265.73 154.63C266.106 155.541 266.572 156.412 267.12 157.23C267.666 158.05 268.296 158.811 269 159.5C269.712 160.191 270.481 160.82 271.3 161.38C272.124 161.93 273.002 162.396 273.92 162.77C274.831 163.141 275.775 163.425 276.74 163.62C277.713 163.804 278.7 163.898 279.69 163.9C280.677 163.901 281.661 163.807 282.63 163.62C283.606 163.429 284.561 163.14 285.48 162.76C286.389 162.384 287.26 161.922 288.08 161.38C288.903 160.833 289.667 160.203 290.36 159.5C291.055 158.806 291.685 158.05 292.24 157.24C292.779 156.414 293.241 155.541 293.62 154.63C294.372 152.827 294.76 150.893 294.76 148.94C294.796 146.573 294.228 144.236 293.11 142.15H293.07ZM291.86 148.94C291.862 149.739 291.785 150.536 291.63 151.32C291.476 152.101 291.245 152.865 290.94 153.6C290.634 154.343 290.248 155.05 289.79 155.71C289.377 156.335 288.912 156.923 288.4 157.47L288.3 157.57C287.156 158.72 285.797 159.634 284.3 160.26C281.286 161.447 277.934 161.447 274.92 160.26C273.485 159.657 272.181 158.781 271.08 157.68L270.98 157.57C270.409 157.013 269.899 156.396 269.46 155.73C269.015 155.057 268.634 154.344 268.32 153.6C267.713 152.121 267.401 150.538 267.4 148.94C267.401 148.131 267.478 147.324 267.63 146.53C267.782 145.746 268.01 144.979 268.31 144.24C268.628 143.497 269.013 142.784 269.46 142.11C269.904 141.445 270.413 140.825 270.98 140.26C272.079 139.128 273.394 138.229 274.848 137.616C276.301 137.003 277.863 136.688 279.44 136.69C281.071 136.671 282.689 136.977 284.2 137.59C285.686 138.201 287.043 139.086 288.2 140.2L288.3 140.32C288.87 140.851 289.374 141.448 289.8 142.1C290.25 142.761 290.629 143.469 290.93 144.21L290.99 144.35C291.272 145.058 291.486 145.791 291.63 146.54C291.785 147.331 291.862 148.134 291.86 148.94Z" fill="black"/>
<path d="M361.78 161L349.78 153.35L350.78 153.27C351.406 153.217 352.028 153.121 352.64 152.98C353.662 152.779 354.644 152.414 355.55 151.9C356.418 151.4 357.187 150.746 357.82 149.97C358.506 149.174 359.011 148.24 359.3 147.23C359.631 146.165 359.796 145.055 359.79 143.94C359.798 143.06 359.694 142.183 359.48 141.33C359.294 140.506 358.987 139.714 358.57 138.98C358.095 138.098 357.465 137.308 356.71 136.65C355.902 135.982 354.986 135.457 354 135.1C352.244 134.536 350.403 134.282 348.56 134.35H340C339.734 134.326 339.467 134.355 339.213 134.435C338.958 134.516 338.723 134.647 338.52 134.82L338.43 134.92V134.97C338.304 135.172 338.206 135.391 338.14 135.62C338.096 135.844 338.076 136.072 338.08 136.3V162.08C338.059 162.267 338.079 162.456 338.14 162.634C338.2 162.812 338.3 162.975 338.431 163.11C338.562 163.245 338.721 163.349 338.898 163.414C339.074 163.48 339.263 163.506 339.45 163.49C339.64 163.509 339.831 163.485 340.011 163.421C340.19 163.356 340.354 163.253 340.488 163.118C340.623 162.983 340.726 162.82 340.791 162.641C340.855 162.461 340.879 162.27 340.86 162.08V137.08H348.57C349.13 137.08 349.73 137.08 350.26 137.14L351.75 137.27C352.258 137.348 352.753 137.496 353.22 137.71C353.726 137.942 354.205 138.227 354.65 138.56C355.365 139.106 355.929 139.826 356.29 140.65V140.72C356.703 141.739 356.904 142.831 356.88 143.93C356.886 144.637 356.805 145.342 356.64 146.03C356.467 146.641 356.2 147.221 355.85 147.75L355.79 147.85C355.451 148.357 355.028 148.804 354.54 149.17C353.997 149.57 353.388 149.872 352.74 150.06L352.5 150.15C351.892 150.322 351.269 150.439 350.64 150.5C349.607 150.605 348.569 150.655 347.53 150.65H346.53C346.23 150.65 345.93 150.65 345.63 150.6H345.34C344.978 150.578 344.622 150.692 344.34 150.92C344.175 151.04 344.041 151.198 343.951 151.381C343.86 151.564 343.815 151.766 343.82 151.97C343.833 152.252 343.923 152.526 344.08 152.76C344.22 152.937 344.389 153.089 344.58 153.21L360.31 163.29C360.526 163.463 360.793 163.561 361.07 163.57C361.253 163.581 361.437 163.554 361.609 163.49C361.781 163.427 361.938 163.328 362.07 163.2C362.209 163.074 362.319 162.919 362.391 162.747C362.464 162.574 362.497 162.387 362.49 162.2C362.491 161.947 362.426 161.699 362.3 161.48C362.191 161.262 362.006 161.091 361.78 161Z" fill="black"/>
<path d="M88.8899 143C88.0949 141.035 86.8315 139.295 85.2099 137.93C82.3599 135.54 78.5399 134.33 73.8399 134.33H67.0999C66.566 134.289 66.0366 134.454 65.6199 134.79L65.5099 134.92C65.3818 135.128 65.2841 135.354 65.2199 135.59C65.1602 135.815 65.1333 136.047 65.1399 136.28V161.53C65.1047 162.054 65.269 162.572 65.5999 162.98L65.7199 163.09C66.1198 163.361 66.5973 163.495 67.0799 163.47H73.8199C76.6519 163.535 79.465 162.993 82.0699 161.88C84.368 160.838 86.3185 159.158 87.6899 157.04C88.4781 155.861 89.0849 154.57 89.4899 153.21C89.8953 151.816 90.0974 150.371 90.0899 148.92C90.0975 147.891 89.9901 146.865 89.7699 145.86C89.6153 144.869 89.319 143.906 88.8899 143ZM87.2499 148.92C87.2524 149.93 87.135 150.937 86.8999 151.92C86.6906 152.855 86.3542 153.757 85.8999 154.6C85.3298 155.678 84.5942 156.66 83.7199 157.51C82.873 158.322 81.9047 158.996 80.8499 159.51H80.7699C78.6143 160.427 76.28 160.847 73.9399 160.74H67.9399V137.1H73.9399C76.3259 137.031 78.6981 137.485 80.8899 138.43C82.6947 139.261 84.2247 140.589 85.2999 142.26L85.3599 142.36C86.623 144.32 87.2804 146.609 87.2499 148.94V148.92Z" fill="black"/>
</svg>
